Coordinates
nRows=4
nColumns=38

# SIMM Motion File Header:
name Coordinates
datacolumns 38
datarows 4
otherdata 1
range 1.67100000000000000000 1.67399999999999990000

Units are S.I. units (second, meters, Newtons, ...)
Angles are in degrees.

endheader
time	pelvis_tilt	pelvis_list	pelvis_rotation	pelvis_tx	pelvis_ty	pelvis_tz	hip_flexion_r	hip_adduction_r	hip_rotation_r	knee_angle_r	ankle_angle_r	subtalar_angle_r	mtp_angle_r	hip_flexion_l	hip_adduction_l	hip_rotation_l	knee_angle_l	ankle_angle_l	subtalar_angle_l	mtp_angle_l	lumbar_extension	lumbar_bending	lumbar_rotation	arm_flex_r	arm_add_r	arm_rot_r	elbow_flex_r	pro_sup_r	wrist_flex_r	wrist_dev_r	arm_flex_l	arm_add_l	arm_rot_l	elbow_flex_l	pro_sup_l	wrist_flex_l	wrist_dev_l
      1.67100000000000000000	      0.00622011975406805760	      7.16504421223690090000	     -2.07930238021489400000	      0.85272637658154515000	      0.96792688406043348000	     -0.32044196161807859000	     33.95823703913701800000	     -3.03942167732891380000	      2.39566361219972990000	    -99.66675453085689200000	     -6.90479195736649040000	     -0.00000000000029171989	      0.00000000000032209575	      0.06422669251040304100	     13.14299563344014400000	      9.30930861031117020000	    -33.67423256875532200000	     22.84137431638943700000	     -0.00000000000006586152	     -0.00000000000000954807	    -16.48328495324565800000	    -14.47002528369464600000	    -10.16849924825985200000	    -30.99432417318475400000	    -25.02101197664531500000	     -4.00372297122016980000	     86.23698830557171400000	     69.75456263285796900000	     -0.00000000000000237009	      0.00000000000000410569	     -3.85884405981465540000	    -27.28614382370878000000	    -10.47915188157725600000	     95.39442442073631400000	     98.11001149944829100000	     -0.00000000000002334279	      0.00000000000000393293
      1.67199999999999990000	     -0.00682353569669343250	      7.04164005317019370000	     -2.10341105992025400000	      0.85304863979230794000	      0.96821457030247982000	     -0.32036393441824096000	     34.26096922143875600000	     -2.88861357417799130000	      2.34577765913507540000	    -99.30938007275474900000	     -6.77461949563651180000	     -0.00000000000029261447	      0.00000000000032310712	     -0.45829997694858154000	     12.99484915208004000000	      9.41594510134222600000	    -33.29871788905195700000	     22.61555411540192000000	     -0.00000000000006588326	     -0.00000000000000965501	    -16.43604874376164900000	    -14.31885962446224500000	    -10.24024134022690700000	    -31.22227163626607900000	    -24.99540648288747800000	     -4.10406666650338450000	     86.32107782120509400000	     69.75113473474765200000	     -0.00000000000000240127	      0.00000000000000416471	     -3.68831901719684830000	    -27.21481003574849900000	    -10.53449005148217000000	     95.57536369202117000000	     98.17497472128786700000	     -0.00000000000002344971	      0.00000000000000401047
      1.67300000000000000000	     -0.02124693126685077800	      6.91485759568098860000	     -2.12591886298939860000	      0.85338174462054495000	      0.96850622952670373000	     -0.32028679500785373000	     34.55861398158580800000	     -2.73629673017493900000	      2.29126314125971620000	    -98.94245240223953900000	     -6.64471179180930700000	     -0.00000000000029351329	      0.00000000000032411729	     -0.98064857789830517000	     12.84188804236289100000	      9.52182604594900720000	    -32.91830644551718900000	     22.37292516583296400000	     -0.00000000000006590418	     -0.00000000000000977691	    -16.38596866689075400000	    -14.16330360169880900000	    -10.31146358891580300000	    -31.45253413272847400000	    -24.96900220104661700000	     -4.21049739014729770000	     86.40899157099946100000	     69.75444096874562700000	     -0.00000000000000243380	      0.00000000000000422489	     -3.52252724136328110000	    -27.14149256287981500000	    -10.58924984567204900000	     95.76080132451019700000	     98.23832196935713100000	     -0.00000000000002355620	      0.00000000000000409614
      1.67399999999999990000	     -0.03694391490648653300	      6.78480915034353500000	     -2.14686340762329090000	      0.85372552175233929000	      0.96880183228470129000	     -0.32021037883881132000	     34.85109930179497400000	     -2.58256481202598880000	      2.23222456128249820000	    -98.56609934886644500000	     -6.51496500595968000000	     -0.00000000000029441661	      0.00000000000032512625	     -1.50282796058068000000	     12.68420313839010500000	      9.62670568459832050000	    -32.53302399729445700000	     22.11344787519474400000	     -0.00000000000006594985	     -0.00000000000000989256	    -16.33321513340453600000	    -14.00351576309035900000	    -10.38219911499988200000	    -31.68497039902000300000	    -24.94176426141912700000	     -4.32280707656846010000	     86.50054593341724300000	     69.76431807464480500000	     -0.00000000000000246829	      0.00000000000000428535	     -3.36137890662770640000	    -27.06634889670226200000	    -10.64322644440050600000	     95.95063928658098000000	     98.29990260711464600000	     -0.00000000000002366366	      0.00000000000000417329
